
<svg xmlns="http://www.w3.org/2000/svg" xmlns:xlink="http://www.w3.org/1999/xlink" preserveAspectRatio="xMidYMid meet" version="1.0" viewBox="0.0 0.0 493.9 466.8" zoomAndPan="magnify" style="fill: rgb(132, 144, 159);" original_string_length="2526"><g id="__id52_st3ajdc5ub"><path d="M456,130.1L69.1,353.5l-2.8-1.6v-3.3l386.9-223.4l2.8,1.6V130.1z M456,167L101.1,372l-5.6-3.3L456,160.5V167z M456,204 L133.1,390.4l-5.6-3.3L456,197.5V204z M456,241l-290.9,168l-1.4-0.8l-4.2-2.4L456,234.5v4.9V241z M456,314.9l-226.9,131l-5.6-3.3 L456,308.4V314.9z M255.5,461.1L456,345.3v6.5l-97.4,56.3l-97.4,56.3L255.5,461.1z M266.8,17.6L66.3,133.3v-6.5l97.4-56.3l97.4-56.3 L266.8,17.6z M323.6,3.3l-40.8,23.6L107.1,128.3l-40.8,23.6v-6.5l40.8-23.6l0,0L317.9,0L323.6,3.3z M333.6,34.5l-18.8,10.8L85,177.9 l-18.8,10.8v-6.5L85,171.4L309.1,42l18.8-10.8L333.6,34.5z M378.5,45.5L98,207.4l-31.7,18.3v-6.5L98,200.9L341.2,60.5l31.7-18.3 L378.5,45.5z M398.9,70.7l-20.1,11.6L66.3,262.7v-6.5l20.1-11.6v0L393.3,67.4L398.9,70.7z M447.4,79.6L102.8,278.6l-36.6,21.1v-6.5 l36.6-21.1L405.2,97.5h0l36.6-21.1L447.4,79.6z M458,110.5l-15.1,8.7L81.4,327.9l-15.1,8.7v-6.5l15.1-8.7l370.9-214.1L458,110.5z M66.3,207.3l-33.2,19.1v-6.5l33.2-19.1L292,70.4l33.2-19.1l5.6,3.3l-33.2,19.1L66.3,207.3z M66.3,244.2l-40.3,23.3v-4.9V261 l40.3-23.3L316.8,93l40.3-23.3l1.4,0.8l4.2,2.4L66.3,244.2z M66.3,281.2L52.7,289v-6.5L375.6,96.1l13.6-7.8l5.6,3.3L66.3,281.2z M399.5,125.7L39,333.9v-6.5l27.3-15.8l0,0l327.6-189.2l27.3-15.8l5.6,3.2L399.5,125.7L399.5,125.7z M85.1,362.7L55,380.1l-5.6-3.2 l30.1-17.4l6.5-3.7l340-196.3l30.1-17.4l6.5-3.7v6.5L91.5,359L85.1,362.7z M117.1,381.2l-20.3,11.7l-5.6-3.3l58.2-33.6l344.5-198.9 v6.5L456,185.5L155,359.3L117.1,381.2z M99.3,428.4l-5.6-3.3l49.8-28.8h0l17.8-10.3l312.5-180.4v6.5L456,222.5 C337.1,291.1,218.2,359.8,99.3,428.4z M213.1,436.6l-38.4,22.1l-5.6-3.2l38.4-22.1l36.1-20.8l159.4-92l53-30.6l36.1-20.8v6.5 L456,296.4l-38.3,22.1l-10.7,6.2l-157.7,91.1l0,0L213.1,436.6z M245.1,455.1l-20.3,11.7l-5.6-3.3l20.3-11.8l28-16.2l168.1-97.1 l20.3-11.7l28-16.2v6.5L273.1,438.9L245.1,455.1z M298.8,36.1l-66.3,38.3L0,208.5v-6.5l66.3-38.3v0l160.6-92.7l66.3-38.3L298.8,36.1 z" style="fill: inherit;"/></g><g id="__id53_st3ajdc5ub"><path clip-rule="evenodd" d="M197.1 427.4L456 277.9 456 271.4 191.5 424.1z" fill-rule="evenodd" style="fill: inherit;"/></g><g id="__id54_st3ajdc5ub"><path clip-rule="evenodd" d="M163.7 428.1L471.1 250.6 471.1 244.1 158 424.8z" fill-rule="evenodd" style="fill: inherit;"/></g></svg>
